<svg xmlns="http://www.w3.org/2000/svg" width="35.444" height="33.006" viewBox="0 0 35.444 33.006">
  <g id="Groupe_12" data-name="Groupe 12" transform="translate(0)">
    <path id="Tracé_10" data-name="Tracé 10" d="M-291.463-124.333c-3.649,0-7.3-.142-10.944.041-3.581.18-6.68-3.31-6.571-6.713.155-4.86.164-9.734,0-14.594-.122-3.547,3.02-7.047,6.619-6.692a2.937,2.937,0,0,0,3.318-1.846,5.272,5.272,0,0,1,5.572-3.139c1.735.106,3.48.005,5.221.025a4.619,4.619,0,0,1,4.124,2.25c.036.057.1.1.125.159.839,2.006,2.2,2.711,4.423,2.607,3.168-.148,5.967,2.905,6,6.164q.079,7.709,0,15.419a6.431,6.431,0,0,1-6.241,6.312C-283.7-124.311-287.58-124.333-291.463-124.333Zm.235-3.293c3.684,0,7.367.01,11.051,0a3.225,3.225,0,0,0,3.388-3.289q.045-7.4,0-14.808a3.23,3.23,0,0,0-3.185-3.291c-.769-.026-1.54-.008-2.311,0a3.124,3.124,0,0,1-2.785-1.53c-.481-.742-1-1.464-1.444-2.225a2.189,2.189,0,0,0-2.149-1.2,36.387,36.387,0,0,1-4.518-.014,2.825,2.825,0,0,0-3.148,1.778,5.137,5.137,0,0,1-5.745,3.236c-2.344-.223-3.646,1.276-3.647,3.705q0,6.941,0,13.882c0,2.435,1.282,3.758,3.643,3.761Q-296.653-127.621-291.228-127.626Z" transform="translate(308.984 157.291)" fill="#3ec55e"/>
    <path id="Tracé_11" data-name="Tracé 11" d="M-244.682-100.93a8.1,8.1,0,0,1-8,8.249,8.1,8.1,0,0,1-8.083-8.265,8.1,8.1,0,0,1,8.049-8.2A8.1,8.1,0,0,1-244.682-100.93Zm-8.027-4.918a4.926,4.926,0,0,0-4.836,4.871,4.934,4.934,0,0,0,4.808,5,4.928,4.928,0,0,0,4.837-4.871A4.934,4.934,0,0,0-252.71-105.849Z" transform="translate(270.457 119.056)" fill="#3ec55e"/>
  </g>
</svg>
