<svg xmlns="http://www.w3.org/2000/svg" width="31.508" height="33.006" viewBox="0 0 31.508 33.006">
  <path id="Tracé_18" data-name="Tracé 18" d="M898.931-148.787c0-3.458.1-6.92-.03-10.372a6.073,6.073,0,0,1,6.158-6.145c4.049.1,8.1.042,12.155.016a6.117,6.117,0,0,1,4.349,1.54c2.5,2.288,4.995,4.579,7.349,7.015a5.367,5.367,0,0,1,1.467,3.8q.051,7.336.007,14.672a5.98,5.98,0,0,1-5.934,5.92c-6.514.019-13.03-.081-19.542.042a6.155,6.155,0,0,1-6.007-6.019C899.019-141.806,898.931-145.3,898.931-148.787Zm3.017-.016c0,3.427-.009,6.855,0,10.282a2.973,2.973,0,0,0,3.164,3.163q9.539.014,19.079,0a2.973,2.973,0,0,0,3.179-3.149c.013-3.677-.011-7.354.018-11.03,0-.615-.169-.782-.778-.773-2.369.034-4.739.017-7.108.013a4.511,4.511,0,0,1-4.782-4.81c-.007-2.119-.028-4.238.014-6.356.013-.672-.207-.825-.844-.818-2.868.032-5.736.01-8.6.015a3.029,3.029,0,0,0-3.34,3.366Q901.943-153.85,901.948-148.8Zm21.041-4.507c1,0,1.994.028,2.988-.013.434-.018,1.079.283,1.26-.176.167-.425-.275-.913-.588-1.305a3.389,3.389,0,0,0-.318-.34q-3.251-3.081-6.5-6.16a3.956,3.956,0,0,0-1.252-.791c-.611-.249-.812-.1-.8.574.033,2.177,0,4.356.016,6.534a1.465,1.465,0,0,0,1.651,1.673C920.622-153.3,921.806-153.309,922.989-153.309Z" transform="translate(-898.897 165.306)" fill="#ff3b30"/>
</svg>
