<svg xmlns="http://www.w3.org/2000/svg" width="35.648" height="33.006" viewBox="0 0 35.648 33.006">
  <path id="Tracé_16" data-name="Tracé 16" d="M517.984-124.54c-3.766,0-7.54-.155-11.295.048a5.364,5.364,0,0,1-5.409-5.471,13.263,13.263,0,0,0-.35-3.811,11.869,11.869,0,0,1-.189-2.611c-.071-2.059-.446-4.089-.44-6.152a4.8,4.8,0,0,1,.871-2.923,2.9,2.9,0,0,0,.543-1.89c-.036-1.744.062-3.494-.031-5.234a4.7,4.7,0,0,1,3.982-4.754,40.719,40.719,0,0,1,6.872-.016,4.989,4.989,0,0,1,3.444,2.013,3.357,3.357,0,0,0,2.952,1.232c3.456-.08,6.915-.03,10.372-.027a4.912,4.912,0,0,1,5.3,5.272c0,.479.028.96-.006,1.437a3.521,3.521,0,0,0,.671,2.362c1.056,1.552.6,3.345.489,5.049-.127,2-.362,3.994-.534,5.992-.155,1.8-.222,3.6-.446,5.391A4.91,4.91,0,0,1,530-124.547C526-124.524,521.99-124.54,517.984-124.54Zm.276-19.717q-6.314,0-12.627,0c-1.31,0-2.062.667-1.971,1.8q.521,6.437,1.1,12.87c.113,1.274.646,1.733,1.935,1.734q11.447.008,22.893,0c1.279,0,1.841-.476,1.95-1.721.362-4.119.689-8.24,1.041-12.36.146-1.717-.385-2.325-2.1-2.326Q524.369-144.261,518.26-144.257Zm-.131-3.307c4.1,0,8.21.005,12.314-.011.287,0,.686.218.847-.295a2.076,2.076,0,0,0-2.112-2.959c-3.694,0-7.389-.016-11.083.007a5.269,5.269,0,0,1-3.87-1.584c-.391-.383-.78-.768-1.162-1.16a1.691,1.691,0,0,0-1.274-.552c-1.71.009-3.421-.015-5.131.01a1.513,1.513,0,0,0-1.643,1.675c-.022,1.333.04,2.669-.024,4-.036.75.232.892.925.886C509.989-147.58,514.059-147.564,518.13-147.564Z" transform="translate(-500.302 157.49)" fill="#5856d6"/>
</svg>
