<svg xmlns="http://www.w3.org/2000/svg" width="31.508" height="32.81" viewBox="0 0 31.508 32.81">
  <g id="Groupe_13" data-name="Groupe 13" transform="translate(0)">
    <path id="Tracé_12" data-name="Tracé 12" d="M99.047-148.867c0-3.439.094-6.881-.027-10.316a5.935,5.935,0,0,1,5.846-6.071c6.61.09,13.221.02,19.832.03a5.831,5.831,0,0,1,5.815,6.015q.016,10.363,0,20.726a5.828,5.828,0,0,1-5.751,5.991c-6.641.013-13.283-.092-19.921.046a6.035,6.035,0,0,1-5.824-6.107C99.151-141.984,99.047-145.428,99.047-148.867Zm28.607.061c0-3.407.005-6.814,0-10.222a2.913,2.913,0,0,0-3.041-3.219q-9.825-.012-19.65,0a2.914,2.914,0,0,0-3.05,3.21q-.009,10.175,0,20.351a2.922,2.922,0,0,0,3.13,3.22q9.736.007,19.471,0c1.993,0,3.138-1.21,3.141-3.3Q127.66-143.788,127.654-148.806Z" transform="translate(-99.012 165.254)" fill="#177ffb"/>
    <path id="Tracé_13" data-name="Tracé 13" d="M147.886-117.145c2.263,0,4.526-.005,6.788,0,1.071,0,1.69.529,1.7,1.409s-.611,1.445-1.662,1.446q-6.922.009-13.844,0c-1.051,0-1.673-.566-1.654-1.453s.632-1.4,1.706-1.4C143.242-117.149,145.564-117.145,147.886-117.145Z" transform="translate(-132.024 126.136)" fill="#177ffb"/>
    <path id="Tracé_14" data-name="Tracé 14" d="M147.751-82.3q-3.35,0-6.7,0c-1.21,0-1.854-.514-1.839-1.449.015-.911.638-1.408,1.79-1.409q6.788,0,13.576,0c1.154,0,1.781.5,1.795,1.4.014.935-.635,1.453-1.835,1.454Q151.145-82.3,147.751-82.3Z" transform="translate(-132.025 100.129)" fill="#177ffb"/>
    <path id="Tracé_15" data-name="Tracé 15" d="M144.972-53.19c1.339,0,2.679-.008,4.018,0,1.055.008,1.676.559,1.663,1.444s-.625,1.409-1.7,1.411q-4.018.01-8.035,0c-1.075,0-1.692-.521-1.707-1.4-.016-.914.619-1.451,1.741-1.456C142.294-53.2,143.633-53.191,144.972-53.19Z" transform="translate(-132.025 74.134)" fill="#177ffb"/>
  </g>
</svg>
