<svg xmlns="http://www.w3.org/2000/svg" width="32.991" height="33.001" viewBox="0 0 32.991 33.001">
  <g id="Groupe_11" data-name="Groupe 11" transform="translate(0 0)">
    <g id="Groupe_10" data-name="Groupe 10" transform="translate(0)">
      <path id="Tracé_8" data-name="Tracé 8" d="M-712.879-148.767c0-3.459.1-6.922-.028-10.376a6.082,6.082,0,0,1,6.118-6.107c6.921.088,13.844.019,20.766.029a5.981,5.981,0,0,1,6.091,6.049q.018,10.424,0,20.848a5.978,5.978,0,0,1-6.02,6.028c-6.953.014-13.908-.092-20.859.046a6.181,6.181,0,0,1-6.1-6.14C-712.772-141.845-712.879-145.308-712.879-148.767Zm29.953.686c0-3.766,0-7.311,0-10.856a3.01,3.01,0,0,0-3.32-3.291q-10.15-.006-20.3,0a3.024,3.024,0,0,0-3.334,3.371q0,7.713,0,15.427v.8c.392,0,.531-.233.707-.39,1.233-1.1,2.454-2.21,3.688-3.308a2.243,2.243,0,0,1,3.13-.22c1.46.957,2.927,1.9,4.351,2.913.526.373.819.287,1.241-.142,2.229-2.268,4.485-4.508,6.738-6.752,1.263-1.259,2.289-1.31,3.694-.21C-685.258-149.9-684.18-149.06-682.925-148.081Zm-13.385,12.794c3.4,0,6.8.007,10.2,0a2.978,2.978,0,0,0,3.182-3.148c.013-1.715-.022-3.43.018-5.144a1.29,1.29,0,0,0-.591-1.166c-1.341-1.016-2.69-2.023-3.985-3.094-.462-.383-.686-.291-1.057.086-2.256,2.287-4.533,4.552-6.809,6.819a2.355,2.355,0,0,1-3.495.346c-1.458-.96-2.914-1.925-4.354-2.912a.715.715,0,0,0-1.054.054q-2.616,2.4-5.28,4.757a.8.8,0,0,0-.271.9,3.242,3.242,0,0,0,3.3,2.5C-703.11-135.281-699.71-135.288-696.31-135.288Z" transform="translate(712.914 165.252)" fill="#fd8d37"/>
      <path id="Tracé_9" data-name="Tracé 9" d="M-669.652-125.131a3,3,0,0,1,2.917,3.025,3,3,0,0,1-3.074,2.962,3,3,0,0,1-2.915-3.119A3,3,0,0,1-669.652-125.131Z" transform="translate(680.251 132.643)" fill="#fd8d37"/>
    </g>
  </g>
</svg>
